<svg xmlns="http://www.w3.org/2000/svg" viewBox="0 0 802.6 931.3"><defs><style>  .cls-1{fill:#f0f0f0;}.cls-2{fill:#fff;}.cls-3,.cls-4{fill:none;stroke-linecap:round;stroke-linejoin:round;}.cls-3{stroke:#fb5d64;stroke-width:4px;}.cls-4{stroke:#1b3c87;stroke-width:3.19px;}.cls-5{fill:#b2c3fb;}.cls-6,.cls-8{fill:#d8dfff;}.cls-7{fill:#eaf0ff;}.cls-8{opacity:0.71;}</style></defs><g data-name="Layer 2"><path class="cls-1" d="M560.7 215c39.4 82.9 62.4 135.6 113.2 214.3C724.5 507.8 803 612.5 789.1 689.9c-13.8 77.2-119.8 127.3-226.9 160.3-107.3 33-215.5 49.2-297.4 11.2-81.6-38-136.8-130.1-155.5-216.8s-1.1-168.2 13.2-250.6 25.1-165.5 72.5-246.9C242.1 65.5 325.9-14.5 395.6 2.2 465.3 18.7 521.3 132.1 560.7 215Z"/><rect class="cls-2" x="206.1" y="147.4" width="172.5" height="172.5"/><polygon class="cls-3" points="315.6 299.9 222.6 451.9 524.6 451.9 315.6 299.9"/><path class="cls-2" d="M455.6 581.9c-9-1-58 3-119 74l-0.8c-6.2-6.6-18.1-14.4-37.7-23.6 6.6-9 11.5-29.7 17-41 20-41 45.3-124.2 49.5-148.5 13.5-77.5-25.9-88.6-41-55-5.6 12.5-29.4 57.1-53.9 106.9-21.9-7.2-36.7-42.1 6.1-2 2-10.7 14.8-22 32h0c-11-6-21-9-36 0-14.6 8.8-57.3 47.2-82 124-12 37.4 2 78.3-12.3 139.2l0.2-0.3-0.2c0-0.2 0-0.3 0-0.3C67.1 831.3 46.1 883.4 11.6 924.9a39.2 39.2 0 0 0 14.1 1.3c33.1 4.9 137.3 15.9 219.4-24.8a12.2 12.2 0 0 0 0-3.4l0.5-0.1c25-14 85-141 127-167 26-20 49-85 92-132C469.9 593.2 461.6 582.6 455.6 581.9Z"/><path class="cls-4" d="M391.9 589.1c-18.7 11-41 28.6-65.3 56.8"/><path class="cls-4" d="M297.5 787.9c22.8-29.2 47.2-55.9 65.1-67 26-20 49-85 92-132 5.3-5.8-3-16.3-9-17-3-0.3-10.3-0.1-21 2.9"/><path class="cls-4" d="M235.6 887.9c2.2-10 13.7-31 29.6-55"/><path class="cls-4" d="M279.8 458.3c16-38.5 29.3-70.2 33.8-80.3 15.1-33.6 50-24 41 55"/><path class="cls-4" d="M198.6 646.9c8.9-16.8 33.9-75.7 58.6-134.4"/><path class="cls-4" d="M266.6 664.9c4-7 30-58 39-83"/><path class="cls-4" d="M157.6 581.9c25.2-39.8 56-87 60-91 6-6 23.7-15.1 49.9-3"/><path class="cls-4" d="M128.6 628.9c2.8-4.9 6.8-11.4 11.5-19.1"/><path class="cls-4" d="M72.3 724.4c0.4-29.8-2.2-54.3 5.3-77.4 24.7-76.8 67.4-115.2 82-124 15-9 24.9-6 36 0"/><path class="cls-4" d="M1.6 914.9C33.1 871.8 50.7 835.5 60.4 804.2"/><circle class="cls-5" cx="524.6" cy="336.9" r="72"/><polygon class="cls-6" points="615.6 70.9 517.6 163.9 703.6 269.9 615.6 70.9"/><rect class="cls-7" x="583.6" y="381.9" width="134" height="356" transform="translate(367.13 -250.28)rotate(30)"/><circle class="cls-8" cx="688.1" cy="746.4" r="114.5"/></g></svg>
