<svg xmlns="http://www.w3.org/2000/svg" viewBox="0 0 828.05 684.69"><defs><style>.cls-2{fill:#fff}.cls-3{fill:#eaf0ff}.cls-10,.cls-4,.cls-6,.cls-7,.cls-9{fill:none;stroke-linecap:round;stroke-linejoin:round;stroke-width:2px}.cls-4{stroke:#1b3c87}.cls-5{fill:#d8dfff}.cls-6{stroke:#d8dfff}.cls-7{stroke:#fff}.cls-9{stroke:#b2c3fb}.cls-10{stroke:#b6c6fc}.cls-11{fill:#3b3744}.cls-12{fill:#46dbc9}.cls-15{fill:#b2c3fb}</style></defs><g id="Layer_2" data-name="Layer 2"><g id="vector"><path d="M474.51 571.6c-79.18 4.15-154 30.44-221.67 11.94s-127.93-82-139.35-152.5c-11.43-70.29 25.78-147.55 74-199.83 48-52.29 107.1-79.59 164.23-100.32S464 95.9 535.39 92.26s158.87 3.54 187.19 49.25-2.43 129.64-12.64 213.07.2 166.05-36.41 198.42-119.83 14.46-199.02 18.6z" fill="#f0f0f0"/><path class="cls-2" d="M423.47 411.4c5.26.77 19.43 3.07 19.43 3.07l22.75 10.14 30.25-55-38 22.41-18.82-10.65"/><path class="cls-3" d="M202.6 532.55H48.53L0 280.58h154.07l48.53 251.97z"/><path class="cls-4" d="M332.28 349c47.26 12.39 97.47 27 97.47 27-3.28 7.08-14.55 33.26-14.55 33.26l-244.42 23.82c3.82-13.46 58.92-101.2 82.93-101.2 6.48 0 22.29 3.21 41.91 7.91M453.93 371.44l13.5 34.9M431.33 372.14l-18.89 43.49M437.38 372.14l-18.89 43.49M458.69 368.14l13.5 34.9M419.47 407.4c5.26.77 19.43 3.07 19.43 3.07l22.75 10.14 30.25-55-38 22.41-18.82-10.65"/><path class="cls-5" d="M279.14 417.28h496.73v10.98H279.14z"/><path class="cls-6" d="M305.01 679.69l61.85-251.43M365.22 683.69l62.71-254.92M463.27 570.14L428.5 428.77M491.21 683.69l-17.37-70.59M431 683.69l-62.71-254.92M580.69 679.69l61.85-251.43M684.54 506.29l19.08-77.52M640.9 683.69l23.75-96.53M766.89 683.69l-62.71-254.92M706.68 683.69l-62.71-254.92"/><path class="cls-4" d="M48.53 532.55h183.22M140.14 656.23v16.7M140.14 610.82v11.8M140.14 532.55v66.4M110.35 672.93h59.58"/><path class="cls-5" d="M463.89 49.73h256.02v256.02H463.89z"/><rect class="cls-2" x="485.28" y="96.04" width="158.66" height="41.54" rx="18.52"/><circle class="cls-2" cx="677.75" cy="116.8" r="20.77"/><path class="cls-7" d="M485.28 160.91h213.24M485.28 191.59h213.24M485.28 222.27h108.04"/><rect class="cls-5" x="360.89" y="218.34" width="62.24" height="62.24" rx="12"/><circle cx="419.76" cy="218.08" r="15.68" fill="#fa5d63"/><path class="cls-3" d="M348.09 0h238.43v83.11H348.09z"/><path class="cls-9" d="M389.04 24.55h156.53M389.04 58.56h73.02"/><path class="cls-10" d="M255.74 114.58l-22 50.66 54.87-6.27-32.87-44.39z"/><path class="cls-10" transform="rotate(-76.4 783.929 94.987)" d="M772.15 71.81h23.52v46.38h-23.52z"/><path class="cls-11" d="M90.57 474.83c.61 6.81 12 61.72 48.11 61.72 53.68 0 141.09-67.76 170.23-90.52 18.62-3.79 159-44 159-44-2.59-7.76-8.11-22.07-8.11-22.07s-128.69 8.15-151.5 11.95-129.66 37-134.84 38.49-82.89 44.43-82.89 44.43z"/><path class="cls-11" d="M174.78 437.08c3.82-13.46 58.92-101.2 82.93-101.2s176 44.11 176 44.11c-3.28 7.08-14.55 33.26-14.55 33.26z"/><path class="cls-4" d="M321.47 385.93c-7.66.74-13.68 1.43-17.19 2-22.8 3.8-129.66 37-134.84 38.49s-82.87 44.4-82.87 44.4c.61 6.81 12 61.72 48.11 61.72 25.7 0 59.13-15.53 90.2-34.22M260.68 475c18.85-13.17 34.67-25.48 44.23-32.94 18.62-3.79 159-44 159-44-2.59-7.76-8.11-22.07-8.11-22.07s-44 2.79-85.08 5.86"/><path class="cls-2" d="M159.14 326c4.29 5.4 11.27 17.94 12.86 21.75 8.25-3.34 84-31 90.47-32.38s33.33-6.83 36.19 13c-4.92 4.13-16.19.47-24.6 2.3s-99.06 54.4-105.42 55.81-42.67-10-42.67-10S143 328.68 159.14 326z"/><path class="cls-12" d="M117.68 272.45c19.09 0 43.81 34.39 48.39 47.86-2.62 5.49-12.69 14.78-15.7 15.56s-54.66-63.42-32.69-63.42z"/><path class="cls-4" d="M159.56 310.58a45.35 45.35 0 012.51 5.73c-2.62 5.49-12.69 14.78-15.7 15.56s-54.66-63.42-32.69-63.42c12.37 0 27.11 14.44 37.19 28.27"/><path class="cls-4" d="M255.44 333.57c-28.12 14.73-85.8 47.8-90.8 48.91-6.32 1.4-42.67-10-42.67-10s17-47.78 33.17-50.48c4.29 5.4 11.27 17.94 12.86 21.75 2-.82 8.08-3.09 16.17-6.07M212.88 327.19c21.12-7.63 42.29-15.12 45.59-15.84 6.51-1.43 33.33-6.83 36.19 13-4.92 4.13-16.19.47-24.6 2.3"/><path class="cls-12" d="M120 278c34 24.55 45.7 96.6 58 151.19-10.33 11.59-73.71 52-87.56 48.89-30.83-75-68.51-208.69 3.09-208.69A44.23 44.23 0 01120 278"/><path class="cls-4" d="M83.09 465.78C53 389.67 20.49 265.39 89.52 265.39c14.68 0 26.46 6.55 36.13 17.43M141.68 308.15c15.58 33 23.8 79.21 32.31 117-4.92 5.51-21.85 17.55-39.74 28.32"/><path class="cls-2" d="M44.19 368.29c-.49 7.23-7.55 110.79-4.91 147.15 1.24 17.11 6.66 29.33 6.77 35.18.42 20.8 16.86 31.36 23.2 31.36s7.07-2.17 7.07-4.71S63.09 547.18 63.09 537 80 379.14 81.94 370.44s-37.75-2.15-37.75-2.15z"/><path class="cls-4" d="M59.21 530.55c1.51-21.93 16.84-155.84 18.73-164.11 2-8.7-37.75-2.15-37.75-2.15-.26 3.77-2.3 33.73-3.82 66.7M34.79 478.24c-.21 13.25-.11 24.95.49 33.2 1.24 17.11 6.66 29.33 6.77 35.18.42 20.8 16.86 31.36 23.2 31.36s7.07-2.17 7.07-4.71c0-1.18-2.88-7.81-5.95-15.57"/><path class="cls-12" d="M72.54 288c22.89 1.19 19.89 82.44 12.49 85.43s-42.83-.7-46.53-5.81S41.08 286.4 72.54 288z"/><path class="cls-2" d="M65.93 244.9c2.58 7.8 5.73 26.63 5.66 32.36 4.08 2 15.89 2.72 20.55-.79-1.86-5.08-3.72-17.18-3.58-25.05s-22.63-6.52-22.63-6.52z"/><path class="cls-4" d="M87.11 269a97.09 97.09 0 01-2.55-21.56c.14-7.88-22.63-6.52-22.63-6.52 2.58 7.8 5.73 26.63 5.66 32.36 2.68 1.32 8.69 2.08 13.82 1.45"/><circle class="cls-2" cx="84.56" cy="232.15" r="26.92"/><path class="cls-4" d="M103.49 242.27a27 27 0 01-31 11.55M60.56 246.17a26.92 26.92 0 1146.93-18 27.79 27.79 0 01-.3 4"/><path d="M109.28 211.4c-9.26 13-29.86 14.12-34 14.12s-5.12 11.58-10.45 11.58-19-3.48-19-19.45c0-11.81 9.26-17.94 22.34-22 10.28-3.19 32.18-10 38.89-10 11.23 0 17 11.11 17 22 0 9.37-2.76 13.81-13.48 17.67" fill="#ecc953"/><path class="cls-4" d="M70.44 189.73c11.16-3.4 27.09-8 32.64-8 11.23 0 17 11.11 17 22 0 9.37-2.76 13.81-13.48 17.67M81.32 220.49a59 59 0 01-10.07 1c-4.17 0-5.09 11.58-10.42 11.58s-19-3.48-19-19.45a19.26 19.26 0 01.73-5.4M105.28 207.4a29.94 29.94 0 01-12.72 9.74"/><circle class="cls-2" cx="65.55" cy="234.23" r="6.89"/><path class="cls-4" d="M63.55 239.12a6.89 6.89 0 114.86-11.78M76.2 370.35c-12.22 1-38.54-2.35-41.7-6.71-1.77-2.45-1.26-21.19 3.22-39.87M48.1 297.05c5.14-8.12 11.85-13.47 20.44-13 18.6 1 20.11 54.78 16 76.54"/><path class="cls-2" d="M473.68 399.55l15.85-5.88 18.46-1.78-20.09-58.51-7.13 37.27-15.67 6.72"/><path class="cls-4" d="M478.11 360.66l-1.34 6.99-15.67 6.72M496.9 368.25l-13-37.87-4.16 21.73M469.68 396.55l15.85-5.88 18.46-1.78M93 227.34c0 2.63 1.59 7.38 4 9.15"/><ellipse cx="100.68" cy="224.92" rx="1.69" ry="3.23" fill="#1b3c87"/><path class="cls-4" d="M83.27 240.27c1.26 1.52 4.74 3.62 7.16 3.62"/><path class="cls-3" d="M689.8 207.44h138.25v181.81H689.8z"/><path class="cls-5" d="M689.8 207.44h138.25v25.18H689.8z"/><circle class="cls-15" cx="705.14" cy="219.85" r="6.23"/><circle class="cls-15" cx="724.11" cy="219.85" r="6.23"/><circle class="cls-15" cx="743.09" cy="219.85" r="6.23"/><path class="cls-5" d="M706.56 253.17h38.2v53h-38.2z"/><path class="cls-9" d="M758.01 253.17h51.8M706.56 335.25h103.25M706.56 362.61h103.25M758.01 280.53h51.8M758.01 307.89h51.8"/></g></g></svg>