<?xml version="1.0" encoding="utf-8"?>
<!-- Generator: Adobe Illustrator 23.0.3, SVG Export Plug-In . SVG Version: 6.00 Build 0)  -->
<svg version="1.1" id="Layer_1" xmlns="http://www.w3.org/2000/svg" xmlns:xlink="http://www.w3.org/1999/xlink" x="0px" y="0px"
	 viewBox="0 0 595.28 841.89" style="enable-background:new 0 0 595.28 841.89;" xml:space="preserve">
<style type="text/css">
	.st0{font-family:'MyriadPro-Regular';}
	.st1{font-size:24px;}
	.st2{opacity:0.1091;}
</style>
<g>
	<g>
		<path d="M209.9,292.29c20.76,41.8,41.52,83.6,62.29,125.41c2.96,5.96,5.92,11.92,8.88,17.88c4.29,8.65,17.24,1.06,12.95-7.57
			c-20.76-41.8-41.52-83.6-62.29-125.41c-2.96-5.96-5.92-11.92-8.88-17.88C218.55,276.08,205.61,283.67,209.9,292.29L209.9,292.29z"
			/>
	</g>
</g>
<g>
	<g>
		<path d="M353.42,284.01c-21.16,42.1-42.31,84.2-63.47,126.3c-2.96,5.9-5.93,11.8-8.89,17.7c-4.32,8.6,8.61,16.21,12.95,7.57
			c21.16-42.1,42.31-84.2,63.47-126.3c2.96-5.9,5.93-11.8,8.89-17.7C370.69,282.97,357.76,275.37,353.42,284.01L353.42,284.01z"/>
	</g>
</g>
<g>
	<g>
		<path d="M245.72,356.6c-12.1,23.72-24.2,47.44-36.3,71.16c-4.38,8.58,8.56,16.18,12.95,7.57c12.1-23.72,24.2-47.44,36.3-71.16
			C263.05,355.59,250.11,347.99,245.72,356.6L245.72,356.6z"/>
	</g>
</g>
<g>
	<g>
		<path d="M317.36,364.65c12.02,23.8,24.04,47.6,36.06,71.4c4.35,8.62,17.3,1.03,12.95-7.57c-12.02-23.8-24.04-47.6-36.06-71.4
			C325.96,348.46,313.01,356.05,317.36,364.65L317.36,364.65z"/>
	</g>
</g>
<g>
	<g>
		<path d="M215.9,439.05c41.99,0.21,83.99,0.42,125.98,0.63c6.01,0.03,12.01,0.06,18.02,0.09c9.65,0.05,9.67-14.95,0-15
			c-41.99-0.21-83.99-0.42-125.98-0.63c-6.01-0.03-12.01-0.06-18.02-0.09C206.24,424,206.23,439,215.9,439.05L215.9,439.05z"/>
	</g>
</g>
<text transform="matrix(1 0 0 1 276.7766 299.4926)"><tspan x="0" y="0" class="st0 st1">ad</tspan><tspan x="-25.4" y="28.8" class="st0 st1">meliora</tspan></text>
<g>
	<g>
		<g>
			<path class="st2" d="M412.12,391.94c-0.07,2.8-0.14,5.6-0.21,8.4c-0.43,4.21-1.13,8.37-2.11,12.48c-0.47,2.72-1.16,5.39-2.06,8
				c-1.07,3.91-2.43,7.72-4.09,11.42c0.19-0.4,0.38-0.79,0.57-1.19c-1.33,2.79-2.67,5.58-4,8.37c0.2-0.38,0.4-0.76,0.6-1.14
				c-1.5,2.67-3.01,5.33-4.51,8c0.21-0.37,0.42-0.73,0.63-1.1c-2.74,4.47-5.76,8.74-9.08,12.8c-2.44,3.06-5.08,5.94-7.89,8.65
				c-5.53,5.56-11.49,10.49-17.96,14.91c-14.07,9.6-29.96,16.34-46.67,19.71c-16.04,3.24-32.53,3.23-48.65,0.58
				c-8.09-1.33-15.97-3.69-23.64-6.54c-9.85-3.66-18.74-8.9-27.47-14.67c0.27,0.2,0.55,0.41,0.82,0.61
				c-2.32-1.74-4.64-3.49-6.96-5.23c0.26,0.22,0.52,0.43,0.79,0.65c-2.21-1.87-4.41-3.74-6.62-5.61c0.25,0.23,0.5,0.45,0.75,0.68
				c-2.09-1.99-4.18-3.98-6.27-5.96c0.24,0.24,0.48,0.48,0.72,0.72c-1.97-2.1-3.93-4.2-5.9-6.3c0.23,0.25,0.45,0.5,0.68,0.75
				c-1.84-2.21-3.68-4.41-5.52-6.62c0.21,0.26,0.43,0.52,0.64,0.78c-6.09-8.21-11.59-16.58-15.91-25.87
				c-3.21-6.91-5.85-14.2-7.79-21.58c-4.61-17.48-5.51-35.97-2.76-53.83c2.72-17.67,9.21-35.05,19.16-49.93
				c4.14-6.19,8.68-12.07,13.76-17.52c3.37-3.61,6.94-7.02,10.7-10.22c4.27-3.63,8.74-6.99,13.4-10.1
				c-0.54,0.38-1.08,0.76-1.61,1.14c2.67-1.68,5.34-3.37,8.02-5.05c-0.58,0.36-1.16,0.71-1.74,1.07c2.79-1.54,5.58-3.08,8.38-4.61
				c-0.62,0.33-1.25,0.66-1.87,0.98c2.91-1.38,5.81-2.77,8.72-4.15c-0.66,0.3-1.33,0.59-1.99,0.89c3.02-1.22,6.03-2.44,9.05-3.67
				c-0.7,0.26-1.41,0.52-2.11,0.78c3.12-1.05,6.24-2.1,9.36-3.15c-0.74,0.22-1.49,0.44-2.23,0.66c3.21-0.87,6.42-1.74,9.63-2.61
				c-0.78,0.17-1.56,0.35-2.33,0.52c3.3-0.68,6.59-1.36,9.89-2.04c-0.81,0.13-1.62,0.25-2.43,0.38c3.38-0.48,6.75-0.96,10.13-1.44
				c-0.84,0.07-1.68,0.14-2.51,0.21c6.08-0.69,12.19-1.01,18.31-0.95c5.4,0.08,10.78,0.48,16.13,1.21
				c10.59,1.45,20.98,4.23,30.87,8.29c16.67,6.85,31.82,17.31,44.25,30.35c12.38,12.98,22.09,28.53,28.28,45.37
				c3.62,9.84,6.04,20.12,7.19,30.54c0.59,5.35,0.85,10.73,0.77,16.11c-0.08,5.53-0.5,11.03-1.26,16.5
				c-0.09,0.81-0.34,1.83,0.45,2.41c1.23,0.9,2.58-0.45,3.35-1.26c1.6-1.67,2.96-3.53,4.26-5.44c1.13-1.66,2.37-3.26,2.45-5.32
				c0.45-6.15,0.48-12.3,0.09-18.45c-0.38-6-1.15-11.95-2.33-17.85c-2.28-11.44-6.07-22.57-11.23-33.04
				c-6-12.16-13.87-23.41-23.2-33.25c-24.79-26.13-59.38-41.61-95.4-42.61c-18.63-0.51-37.34,2.74-54.66,9.62
				c-16.38,6.51-31.2,16.19-44.06,28.22c-21.13,19.77-35.42,46.56-40.15,75.08c-3.24,19.58-2.31,39.74,2.96,58.9
				c4.21,15.31,11.2,30.41,20.71,43.18c6.32,8.48,13.23,16.18,21.14,23.21c14.08,12.53,31.25,21.7,49.26,27.1
				c41.4,12.39,87.64,4.25,122.14-21.82c13.9-10.51,25.95-23.86,34.53-39.05c4.29-7.59,7.9-15.51,10.53-23.84
				c1.76-5.62,3.11-11.34,4.04-17.16c1.14-5.28,1.78-10.62,1.9-16.02c0.04-0.87-0.35-1.45-1.16-1.75c-1.31-0.16-2.5,0.19-3.57,1.05
				c-1.99,1.13-3.9,2.39-5.71,3.78C413.27,389.71,412.48,390.67,412.12,391.94z"/>
			<path class="st2" d="M405.27,384.35c-0.12,2.85-0.24,5.7-0.35,8.54c-0.43,4.21-1.13,8.36-2.1,12.47
				c-1.41,6.61-3.29,13.19-5.98,19.41c-2.09,4.82-4.46,9.51-7.1,14.05c-3.92,6.75-8.78,12.71-13.8,18.65
				c0.5-0.53,1.01-1.05,1.51-1.58c-2.28,2.38-4.56,4.75-6.84,7.13c0.53-0.49,1.07-0.99,1.6-1.48c-2.42,2.23-4.84,4.46-7.25,6.69
				c0.56-0.46,1.12-0.92,1.68-1.38c-2.55,2.07-5.09,4.15-7.64,6.22c0.59-0.42,1.17-0.84,1.76-1.26c-4.76,3.42-9.48,6.82-14.51,9.85
				c-5.51,3.32-11.37,6.08-17.33,8.49c-10.86,4.39-22.44,7.5-34.12,8.7c-10.82,1.11-21.76,1.08-32.55-0.37
				c-6.81-0.92-13.5-2.43-20.07-4.43c-6.46-1.96-12.51-4.49-18.67-7.26c0.55,0.29,1.1,0.58,1.65,0.86
				c-2.88-1.51-5.77-3.03-8.65-4.54c0.52,0.31,1.05,0.63,1.57,0.94c-2.77-1.67-5.54-3.35-8.31-5.02c0.5,0.34,1,0.68,1.5,1.02
				c-2.65-1.83-5.3-3.65-7.94-5.48c0.47,0.36,0.95,0.73,1.42,1.09c-2.52-1.96-5.04-3.93-7.56-5.89c0.45,0.38,0.9,0.77,1.34,1.15
				c-2.39-2.1-4.78-4.2-7.17-6.3c0.42,0.4,0.84,0.8,1.26,1.2c-2.26-2.23-4.51-4.45-6.77-6.68c0.39,0.42,0.79,0.84,1.18,1.25
				c-2.12-2.35-4.23-4.69-6.35-7.04c0.37,0.43,0.73,0.87,1.1,1.3c-1.97-2.46-3.95-4.92-5.92-7.38c0.34,0.45,0.68,0.89,1.02,1.34
				c-1.83-2.56-3.65-5.13-5.48-7.69c0.31,0.46,0.63,0.91,0.94,1.37c-1.67-2.66-3.35-5.32-5.02-7.98c0.29,0.47,0.57,0.93,0.86,1.4
				c-1.52-2.75-3.03-5.5-4.55-8.25c0.26,0.48,0.52,0.95,0.78,1.43c-4.56-9.53-8.44-19.1-10.91-29.4c-2.5-10.42-3.7-21.14-3.6-31.85
				c0.21-21.73,5.8-43.23,16.46-62.18c19.06-33.88,53.25-58.14,91.52-64.99c21.16-3.79,43.33-2.33,63.76,4.38
				c17.27,5.68,33.27,15.11,46.7,27.36c15.15,13.81,27.01,31.14,34.35,50.28c3.74,9.75,6.3,19.94,7.62,30.3
				c0.67,5.31,1.02,10.64,1.04,15.99c0.02,5.48-0.29,10.94-0.94,16.39c-0.03,0.71-0.06,1.41-0.09,2.12
				c0.24,0.34,0.47,0.68,0.71,1.02c0.41-0.07,0.82-0.13,1.23-0.2c1.11-0.9,1.91-2.03,2.41-3.37c1.69-3.21,3.1-6.55,4.44-9.91
				c1.07-2.68,2.66-5.8,2.45-8.77c-0.24-5.84-0.84-11.65-1.79-17.42c-0.93-5.6-2.19-11.12-3.79-16.57
				c-2.62-8.93-6.13-17.57-10.5-25.77c-4.41-8.29-9.46-16.28-15.48-23.51c-9.96-11.98-21.5-22.67-34.83-30.83
				c-16.03-9.82-33.87-16.88-52.54-19.56c-19.3-2.78-38.94-1.92-57.81,3.16c-18.11,4.88-35.2,13.47-49.97,25.03
				c-30.84,24.15-50.6,60.79-53.43,99.89c-1.92,26.57,3.76,53.56,16.31,77.06c19.31,36.16,54.25,62.87,94.39,71.49
				c21.03,4.52,43.12,4.09,63.96-1.21c20.04-5.09,38.45-14.7,54.5-27.66c15.62-12.61,27.95-28.93,36.92-46.81
				c5.14-10.24,8.8-21.3,11.26-32.47c1.2-5.67,2.18-11.39,2.95-17.13c1.11-5.28,1.79-10.62,2.02-16.01c0.38-4.6-6.88,2.63-6.64,2.41
				c-2.88,2.84-5.65,5.8-8.3,8.86C407.13,380.5,405.96,382.28,405.27,384.35z"/>
			<path class="st2" d="M402.19,375.26c0.05,2.52,0.1,5.04,0.15,7.56c-0.35,4.2-1.01,8.34-1.96,12.44c-0.44,2.67-1.1,5.28-1.98,7.83
				c-1.03,3.81-2.34,7.51-3.95,11.12c0.19-0.42,0.38-0.85,0.56-1.27c-1.29,2.74-2.58,5.49-3.86,8.23c0.21-0.42,0.43-0.85,0.64-1.27
				c-1.46,2.63-2.93,5.26-4.39,7.9c0.24-0.42,0.48-0.85,0.73-1.27c-1.63,2.52-3.26,5.04-4.89,7.57c0.27-0.42,0.55-0.84,0.82-1.26
				c-5.21,7.01-10.64,13.54-17.07,19.48c-2.66,2.56-5.47,4.95-8.43,7.18c-4.42,3.38-9.03,6.49-13.82,9.33
				c0.53-0.34,1.06-0.68,1.6-1.01c-2.73,1.52-5.46,3.04-8.19,4.56c0.57-0.31,1.14-0.63,1.72-0.94c-2.85,1.37-5.69,2.73-8.54,4.1
				c0.61-0.28,1.22-0.57,1.83-0.85c-2.95,1.21-5.91,2.41-8.86,3.62c0.65-0.25,1.3-0.5,1.95-0.75c-3.05,1.04-6.11,2.07-9.16,3.11
				c0.69-0.21,1.37-0.43,2.06-0.64c-3.15,0.86-6.29,1.71-9.44,2.57c0.72-0.17,1.44-0.34,2.16-0.51c-3.23,0.67-6.46,1.34-9.69,2.01
				c0.75-0.13,1.5-0.25,2.25-0.38c-3.31,0.47-6.62,0.95-9.93,1.42c0.78-0.08,1.55-0.15,2.33-0.23c-3.38,0.27-6.76,0.54-10.14,0.81
				c0.8-0.02,1.6-0.04,2.4-0.06c-3.44,0.06-6.88,0.12-10.32,0.18c0.82,0.04,1.64,0.07,2.46,0.11c-6.23-0.08-12.42-0.53-18.59-1.37
				c-5.35-0.74-10.63-1.82-15.84-3.25c-7.62-2.08-14.96-4.94-22.08-8.34c-16.24-7.74-30.42-19.37-42.09-32.95
				c-25.1-29.21-35.42-69.4-28.67-107.14c6.62-37.05,29.91-69.26,62.46-87.97c16.09-9.25,33.88-15.02,52.35-16.87
				c9.29-0.93,18.58-0.98,27.87,0.04c5.43,0.59,10.81,1.52,16.12,2.8c5.21,1.25,10.31,2.84,15.31,4.76
				c-0.29-0.12-0.57-0.24-0.86-0.36c2.71,1.14,5.42,2.28,8.13,3.42c-0.28-0.13-0.56-0.26-0.83-0.39c2.61,1.29,5.23,2.58,7.84,3.88
				c-0.27-0.14-0.54-0.28-0.81-0.43c2.51,1.44,5.02,2.87,7.53,4.31c-0.26-0.15-0.52-0.31-0.78-0.46c2.41,1.58,4.81,3.15,7.22,4.73
				c-0.25-0.16-0.5-0.33-0.75-0.49c5.14,3.83,10.13,7.73,14.79,12.15c3.7,3.51,7.15,7.19,10.41,11.11
				c8.15,9.78,14.78,20.61,19.79,32.31c4.54,10.61,7.7,21.78,9.28,33.22c0.71,5.17,1.06,10.41,1.2,15.63
				c0.21,8.1-0.72,16.04-1.81,24.04c-0.2,1.48,1.06,2.48,2.52,2.44c1.6-0.04,2.3-2.25,2.46-3.56c1.01-8.21,1.78-16.38,1.56-24.66
				c-0.22-7.98-1.16-16.02-2.8-23.84c-3.49-16.66-10.24-32.59-19.63-46.77c-8.7-13.14-19.61-24.67-32.28-34.05
				c-7.58-5.61-15.64-10.2-24.16-14.24c-5.2-2.47-10.76-4.46-16.28-6.11c-8.09-2.42-16.51-4.04-24.91-4.88
				c-18.11-1.81-36.7,0.03-54.1,5.3c-34.08,10.33-63.74,33.49-81.12,64.72c-14.1,25.33-19.29,54.89-15.37,83.53
				c2.54,18.57,9.07,36.82,19.21,52.62c14.85,23.14,36.25,41.69,61.63,52.46c31.21,13.25,67.14,14.18,99.04,2.81
				c22.01-7.85,42.33-21.49,57.31-39.54c5.66-6.82,10.65-14.13,14.71-22.01c3.08-5.99,5.75-12.18,7.74-18.63
				c1.2-3.89,2.11-7.85,2.85-11.85c0.6-2.73,1.02-5.49,1.27-8.28c0.67-3.71,0.76-7.45,0.28-11.21c-0.04-1.31-1.75-2.41-2.96-2.01
				c-0.81,0.54-1.48,1.24-1.98,2.08C402.79,373.43,402.39,374.31,402.19,375.26z"/>
			<path class="st2" d="M414.52,380.51c0.07,4.29-0.27,8.53-1.03,12.74c-0.52,4.16-1.3,8.28-2.32,12.35
				c-1.91,7.74-4.69,15.6-8.33,22.7c-3.56,6.97-7.64,13.72-12.53,19.85c-4.86,6.1-10.24,11.55-15.94,16.87
				c0.52-0.44,1.04-0.87,1.56-1.31c-2.51,2.08-5.01,4.16-7.52,6.24c0.54-0.41,1.08-0.82,1.62-1.22c-2.62,1.93-5.25,3.85-7.87,5.78
				c0.56-0.38,1.12-0.76,1.68-1.13c-2.73,1.77-5.47,3.54-8.2,5.31c0.58-0.35,1.16-0.69,1.74-1.04c-2.83,1.61-5.67,3.22-8.5,4.83
				c0.6-0.31,1.19-0.63,1.79-0.94c-2.93,1.44-5.86,2.88-8.79,4.33c0.61-0.28,1.22-0.56,1.84-0.84c-3.02,1.27-6.03,2.54-9.05,3.81
				c0.63-0.25,1.25-0.49,1.88-0.74c-3.09,1.09-6.19,2.19-9.28,3.28c0.64-0.21,1.28-0.42,1.91-0.63c-3.17,0.91-6.33,1.82-9.5,2.73
				c0.65-0.17,1.3-0.35,1.95-0.52c-3.23,0.72-6.46,1.45-9.69,2.17c0.66-0.14,1.32-0.28,1.97-0.41c-3.29,0.53-6.57,1.06-9.86,1.59
				c0.66-0.1,1.33-0.2,1.99-0.3c-3.33,0.33-6.67,0.67-10,1c0.67-0.06,1.34-0.12,2.01-0.19c-3.38,0.13-6.75,0.26-10.13,0.4
				c0.67-0.02,1.35-0.05,2.02-0.07c-3.41-0.07-6.82-0.15-10.23-0.22c0.67,0.02,1.35,0.03,2.02,0.05c-3.44-0.28-6.88-0.57-10.32-0.85
				c0.67,0.06,1.35,0.11,2.02,0.17c-8.16-1.19-16.19-2.53-24.06-5.1c-6.33-2.07-12.47-4.53-18.44-7.49
				c-12.76-6.33-24.72-14.72-34.69-24.93c-9.08-9.29-16.74-19.62-22.99-31c-3.69-6.72-6.88-14.17-9.19-21.49
				c-0.74-2.52-1.48-5.03-2.21-7.55c-1.5-5.86-2.65-11.78-3.44-17.78c0.12,0.74,0.24,1.47,0.37,2.21
				c-0.35-3.41-0.71-6.82-1.06-10.23c0.08,0.75,0.15,1.49,0.23,2.24c-0.14-3.46-0.29-6.91-0.43-10.37c0.03,0.75,0.06,1.51,0.09,2.26
				c0.07-3.5,0.14-6.99,0.21-10.49c-0.02,0.76-0.04,1.52-0.06,2.28c0.29-3.53,0.58-7.05,0.87-10.58c-0.07,0.76-0.14,1.52-0.2,2.28
				c0.51-3.5,1.03-7.01,1.54-10.51c-0.12,0.76-0.23,1.52-0.35,2.27c0.73-3.43,1.46-6.86,2.19-10.29c-0.17,0.75-0.33,1.5-0.5,2.26
				c0.94-3.35,1.88-6.69,2.82-10.04c-0.22,0.74-0.43,1.49-0.65,2.23c1.14-3.26,2.28-6.52,3.43-9.78c-0.26,0.73-0.53,1.46-0.79,2.19
				c1.34-3.16,2.67-6.33,4.01-9.49c-0.31,0.72-0.62,1.43-0.94,2.15c1.52-3.06,3.05-6.12,4.57-9.18c-0.36,0.7-0.72,1.39-1.08,2.09
				c1.7-2.95,3.41-5.9,5.11-8.85c-0.41,0.68-0.81,1.35-1.22,2.03c1.88-2.83,3.75-5.67,5.63-8.5c-0.45,0.65-0.9,1.3-1.35,1.95
				c2.04-2.71,4.08-5.42,6.12-8.12c-0.49,0.62-0.98,1.24-1.48,1.87c2.2-2.58,4.39-5.15,6.59-7.73c-0.53,0.59-1.06,1.18-1.6,1.77
				c2.34-2.44,4.69-4.88,7.03-7.32c-0.57,0.56-1.14,1.12-1.71,1.67c2.49-2.29,4.97-4.59,7.46-6.88c-0.61,0.52-1.21,1.04-1.82,1.57
				c2.62-2.14,5.23-4.29,7.85-6.43c-0.64,0.48-1.28,0.97-1.92,1.45c2.74-1.99,5.48-3.97,8.22-5.96c-0.67,0.44-1.34,0.89-2.01,1.33
				c2.86-1.82,5.71-3.64,8.57-5.46c-0.7,0.4-1.39,0.8-2.09,1.2c2.96-1.65,5.93-3.3,8.89-4.95c-0.72,0.36-1.44,0.71-2.17,1.07
				c3.06-1.47,6.12-2.95,9.19-4.42c-0.74,0.31-1.49,0.62-2.23,0.93c3.15-1.29,6.3-2.58,9.46-3.87c-0.76,0.26-1.52,0.53-2.29,0.79
				c3.23-1.1,6.47-2.2,9.7-3.31c-0.78,0.22-1.56,0.43-2.33,0.65c3.31-0.91,6.61-1.82,9.92-2.72c-0.79,0.17-1.58,0.33-2.37,0.5
				c5.93-1.46,11.92-2.56,17.98-3.29c5.35-0.62,10.72-0.92,16.1-0.89c11.01,0.06,22.02,1.46,32.66,4.25
				c20.41,5.35,39.32,15.82,54.84,30.09c15.25,14.02,27.14,31.6,34.44,50.99c3.71,9.86,6.23,20.17,7.48,30.63
				c0.64,5.36,0.95,10.74,0.93,16.14c-0.02,5.53-0.38,11.03-1.07,16.52c0.16,1.12,0.77,1.47,1.82,1.05c1.75-1.21,3.08-2.8,4.01-4.76
				c2.1-3.33,4.07-6.74,5.9-10.22c1.24-1.78,1.94-3.74,2.12-5.85c-0.05-6.14-0.48-12.24-1.31-18.32c-0.56-4.49-1.4-8.92-2.51-13.29
				c-2.35-10.07-5.63-19.96-10.19-29.27c-7.71-15.72-17.92-30.08-30.62-42.17c-28.1-26.77-66.62-41.19-105.39-39.44
				c-38.29,1.73-74.94,19.17-100.49,47.72c-24.99,27.93-38.21,65.26-36.44,102.69c1.75,36.9,18.07,72.28,44.94,97.62
				c26.62,25.1,63.17,39.87,99.89,39.08c17.45-0.37,34.72-3.54,50.97-9.95c18.23-7.19,35.35-18.25,49.04-32.3
				c11.88-12.19,21.75-26.18,28.75-41.72c3.57-7.92,6.28-16.15,8.41-24.56c1.33-5.7,2.4-11.44,3.22-17.23
				c1.11-5.33,1.79-10.72,2.05-16.16c0.37-4.36-6.49,1.61-6.6,1.71c-2.96,2.49-5.82,5.1-8.56,7.83
				C416.53,376.95,415.3,378.57,414.52,380.51z"/>
			<path class="st2" d="M409.15,374.08c-0.2,3.02-0.4,6.05-0.59,9.07c-0.1,4.11-0.68,8.14-1.75,12.08c-0.5,2.69-1.21,5.32-2.13,7.89
				c-1.1,3.84-2.49,7.57-4.19,11.19c0.13-0.3,0.27-0.6,0.4-0.91c-1.3,2.64-2.59,5.27-3.89,7.91c0.15-0.3,0.29-0.6,0.44-0.9
				c-3.92,6.71-7.93,13.04-12.94,19.01c-4.72,5.62-10.09,11-15.79,15.63c-10.51,8.54-22.06,15.43-34.69,20.38
				c-12.77,5-26.49,8.13-40.22,8.67c-7.82,0.31-15.71,0.15-23.47-0.94c-2.62-0.42-5.24-0.85-7.86-1.27
				c-5.81-1.15-11.53-2.66-17.16-4.52c0.68,0.2,1.36,0.4,2.04,0.6c-3.1-1.13-6.2-2.26-9.3-3.39c0.69,0.26,1.37,0.51,2.06,0.77
				c-3.03-1.32-6.06-2.65-9.08-3.97c0.69,0.31,1.38,0.63,2.07,0.94c-2.95-1.52-5.9-3.03-8.84-4.55c0.69,0.37,1.37,0.75,2.06,1.12
				c-2.86-1.7-5.72-3.41-8.58-5.11c0.68,0.43,1.36,0.87,2.03,1.3c-2.76-1.89-5.52-3.77-8.28-5.66c0.66,0.5,1.33,0.99,1.99,1.49
				c-2.66-2.07-5.32-4.15-7.98-6.22c0.64,0.56,1.29,1.11,1.93,1.67c-2.53-2.23-5.06-4.47-7.6-6.7c0.62,0.61,1.23,1.23,1.85,1.84
				c-4.33-4.05-8.42-8.33-12.25-12.85c-3.26-3.87-6.28-7.92-9.08-12.15c-4.92-7.45-9-15.36-12.3-23.65
				c-7.32-18.35-10.37-38.14-8.92-57.86c1.38-18.81,6.89-37.23,16.21-53.65c8.99-15.84,21.44-29.72,36.11-40.49
				c30.49-22.37,70.08-30.37,106.88-21.57c18.43,4.41,35.34,12.99,50.25,24.6c8.02,6.25,15.23,13.65,21.48,21.65
				c6.32,8.08,11.27,16.8,15.8,25.97c-0.12-0.28-0.24-0.56-0.37-0.84c1.11,2.63,2.23,5.25,3.34,7.88c-0.11-0.28-0.22-0.57-0.33-0.85
				c0.96,2.69,1.92,5.38,2.89,8.07c-0.1-0.29-0.19-0.57-0.29-0.86c0.81,2.75,1.61,5.5,2.42,8.25c-0.08-0.29-0.16-0.58-0.25-0.87
				c2.06,8.94,3.6,17.74,4,26.93c0.25,3.97,0.27,7.94,0.04,11.91c-0.26,5.41-0.85,10.79-1.76,16.13c-0.2,1.4,0.94,2.35,2.31,2.53
				c1.39,0.18,2.42-1.49,2.59-2.72c1.1-8.24,1.96-16.44,1.81-24.78c-0.15-8.04-1.03-16.14-2.62-24.02
				c-1.89-9.39-4.85-18.53-8.68-27.3c-14.16-32.43-41.07-58.57-73.88-71.84c-34.29-13.87-73.56-13.55-107.44,1.49
				c-21.5,9.54-39.98,24.61-54.09,43.35c-23.09,30.67-30.78,71.22-22.51,108.48c7.28,32.81,27.35,62.21,54.69,81.6
				c20.09,14.25,43.92,23,68.5,24.79c16.24,1.19,32.58-0.44,48.22-5.01c16.82-4.92,32.55-13.12,46.16-24.17
				c13-10.55,24.17-23.51,31.94-38.39c2.54-4.86,4.79-9.95,6.59-15.13c1.35-3.9,2.39-7.9,3.29-11.92c0.78-2.64,1.2-5.33,1.25-8.08
				c0.36-4.5,0.78-9,1.27-13.49c0.12-1.17-1.7-2.47-2.76-2.27C410.93,370.63,409.23,372.86,409.15,374.08z"/>
			<path class="st2" d="M398.31,380.56c-0.25,5.64-0.57,11.18-1.52,16.76c-0.92,5.34-2.19,10.69-3.9,15.83
				c-3.25,9.81-8.05,19.21-13.94,27.69c-11.53,16.61-27.53,30.17-45.53,39.31c-18.54,9.41-39.44,14.19-60.22,13.88
				c-22.97-0.34-45.57-6.83-65.11-18.9c-17.77-10.97-32.65-26.19-43.31-44.15c-10.82-18.22-17.03-38.87-18.01-60.03
				c-1.02-21.95,3.34-43.91,13.02-63.66c4.55-9.28,10.2-17.91,16.87-25.81c3.3-3.9,6.79-7.58,10.52-11.06
				c4.68-4.37,9.62-8.18,14.77-11.97c-0.26,0.17-0.51,0.34-0.77,0.51c2.38-1.55,4.77-3.1,7.15-4.65c-0.26,0.16-0.52,0.31-0.79,0.47
				c2.47-1.41,4.94-2.82,7.4-4.23c-0.27,0.14-0.53,0.29-0.8,0.43c2.55-1.27,5.09-2.54,7.64-3.81c-0.27,0.13-0.54,0.26-0.81,0.39
				c2.62-1.12,5.23-2.24,7.85-3.37c-0.28,0.12-0.55,0.23-0.83,0.35c4.83-1.74,9.63-3.42,14.59-4.77c6.24-1.7,12.66-2.75,19.08-3.43
				c10.61-1.12,21.26-0.92,31.82,0.55c23.56,3.27,45.67,13.1,63.92,28.36c16.08,13.44,28.97,30.67,37.12,49.99
				c3.88,9.2,6.6,18.85,8.36,28.67c1.13,6.28,1.6,12.69,1.73,19.06c0.13,6.63-0.37,13.07-1.03,19.67c-0.1,1-0.38,2.12,0.29,2.99
				c0.61,0.79,1.78,0.75,2.5,0.23c1.01-0.72,1.38-2.21,1.76-3.34c0.63-1.91,1.11-3.81,1.21-5.82c0.65-12.59,0.21-25.04-2.3-37.44
				c-3.51-17.32-10.49-33.91-20.34-48.57c-20.38-30.34-53.17-52.63-89.54-58.15c-17.57-2.67-35.28-2.24-52.61,1.83
				c-11.61,2.73-22.66,6.97-33.18,12.56c-28.67,15.22-51.18,41.22-62.43,71.61c-13.74,37.13-10.87,79.27,8.09,114.04
				c18.82,34.51,52.26,59.82,90.93,67.53c39.38,7.85,81.13-2.86,111.99-28.49c14.12-11.73,26.2-26.5,34.14-43.1
				c3.47-7.25,6.38-14.74,8.45-22.52c2.83-10.63,4.05-21.56,4.79-32.49c0.13-1.95-1.11-3.12-2.98-1.99
				c-1.31,1.28-2.45,2.7-3.42,4.26C399.86,377.27,398.99,378.86,398.31,380.56z"/>
			<path class="st2" d="M406.22,392.82c0.06,5.67-0.47,11.29-1.57,16.86c-0.94,5.42-2.31,10.72-4.1,15.92
				c0.17-0.43,0.33-0.86,0.5-1.29c-1.13,2.92-2.26,5.84-3.39,8.76c0.18-0.42,0.36-0.84,0.54-1.26c-1.32,2.8-2.64,5.6-3.95,8.4
				c0.2-0.4,0.4-0.81,0.59-1.21c-3.2,5.73-6.49,11.26-10.46,16.51c-3.13,4.15-6.5,8.04-10.14,11.74
				c-8.21,8.34-17.51,15.32-27.64,21.16c-21.92,12.63-47.8,17.73-72.9,15.87c-24.19-1.79-47.56-10.31-67.02-24.81
				c-27.28-20.33-46.51-52.05-50.77-85.94c-3-23.85,0.14-48.36,10.1-70.33c9.55-21.07,24.86-38.92,43.6-52.36
				c19.14-13.72,42.36-21.87,65.79-23.57c11.73-0.85,23.59-0.17,35.13,2.16c5.09,1.02,10.13,2.42,15.07,4.02
				c8,2.59,15.32,6.32,22.77,10.16c-0.61-0.32-1.22-0.64-1.82-0.96c2.77,1.66,5.54,3.31,8.31,4.97c-0.6-0.37-1.2-0.75-1.8-1.12
				c2.67,1.83,5.34,3.66,8.01,5.49c-0.59-0.43-1.18-0.85-1.76-1.28c2.56,2,5.13,4,7.69,6c-0.57-0.48-1.14-0.96-1.71-1.44
				c2.45,2.16,4.9,4.33,7.34,6.49c-0.55-0.53-1.09-1.06-1.64-1.6c2.32,2.32,4.64,4.64,6.97,6.96c-0.52-0.58-1.03-1.16-1.55-1.75
				c4.01,4.24,7.75,8.69,11.24,13.36c3.01,4.07,5.78,8.3,8.3,12.69c4.46,7.76,8.03,15.92,10.81,24.43
				c2.83,8.65,4.78,17.52,5.73,26.58c0.56,5.3,0.79,10.6,0.7,15.93c-0.1,5.46-0.53,10.9-1.29,16.31c-0.24,2.2,1.3,3.15,3.1,1.78
				c1.34-1.57,2.5-3.26,3.47-5.08c1.08-1.76,1.97-3.61,2.65-5.56c0.35-5.93,0.32-11.86-0.1-17.79c-0.41-5.74-1.19-11.43-2.33-17.07
				c-1.66-8.2-4.16-16.16-7.23-23.93c-6.85-17.33-17.77-32.86-30.89-45.98c-19.84-19.84-45.8-32.45-73.27-37.27
				c-18.13-3.18-36.91-2.04-54.74,2.23c-17.07,4.1-33.05,12.04-47.3,22.18c-14.89,10.59-27.22,24.5-36.71,40.05
				c-10.68,17.49-16.63,37.65-18.12,58.02c-2.18,29.77,5.67,59.47,22.14,84.31c10.32,15.58,23.67,28.81,39.39,38.91
				c16.8,10.79,35.81,17.59,55.6,20.2c20.38,2.68,40.97,0.99,60.54-5.34c19.04-6.16,36.38-16.41,50.88-30.21
				c10.54-10.03,19.3-21.65,25.85-34.64c3.36-6.67,6.2-13.52,8.31-20.7c1.63-5.61,2.89-11.31,3.77-17.09
				c1.1-5.21,1.74-10.48,1.92-15.8c-0.01-0.88-0.43-1.43-1.27-1.68c-1.34-0.06-2.52,0.38-3.55,1.32c-1.95,1.28-3.8,2.69-5.56,4.22
				C407.26,390.49,406.52,391.51,406.22,392.82z"/>
			<path class="st2" d="M417.14,381.77c0.22,5.57-0.25,11.09-1.41,16.54c0.09-0.41,0.17-0.83,0.26-1.24
				c-0.66,3.14-1.33,6.28-1.99,9.42c0.1-0.41,0.19-0.82,0.29-1.22c-1.53,5.21-3.05,10.37-5.17,15.38c-2.05,4.83-4.5,9.57-7.23,14.05
				c-5.35,8.8-11.97,16.93-19.4,24.04c-14.77,14.12-33.13,24.58-52.74,30.27c-20.31,5.89-42.2,6.69-62.9,2.4
				c-21.62-4.48-41.81-14.75-58.38-29.3c-15.31-13.44-27.34-30.33-35.03-49.19c-7.97-19.53-11.04-40.72-9.07-61.71
				c1.99-21.24,9.25-41.65,21.15-59.36c5.74-8.55,12.45-16.35,20.03-23.32c3.78-3.48,7.72-6.71,11.88-9.73
				c5.81-4.22,11.85-7.67,18.13-11.19c-0.61,0.33-1.21,0.67-1.82,1c2.94-1.42,5.89-2.84,8.83-4.26c-0.63,0.29-1.25,0.58-1.88,0.87
				c3.03-1.24,6.06-2.48,9.09-3.72c-0.64,0.25-1.29,0.49-1.93,0.74c3.11-1.05,6.22-2.11,9.33-3.16c-0.66,0.2-1.31,0.4-1.97,0.6
				c3.18-0.86,6.36-1.73,9.53-2.59c-0.67,0.15-1.33,0.31-2,0.46c3.24-0.67,6.48-1.34,9.71-2.01c-0.67,0.11-1.35,0.22-2.02,0.32
				c3.29-0.47,6.58-0.94,9.87-1.41c-0.67,0.06-1.35,0.12-2.02,0.19c3.33-0.27,6.66-0.53,9.99-0.8c-0.67,0.02-1.35,0.03-2.02,0.05
				c3.36-0.06,6.73-0.12,10.09-0.17c-0.67-0.03-1.33-0.06-2-0.09c6.17,0.07,12.3,0.52,18.41,1.34c5.45,0.75,10.83,1.85,16.13,3.29
				c7.72,2.19,15.25,4.95,22.47,8.48c7.03,3.44,13.84,7.59,20.12,12.25c8.43,6.25,15.66,13.5,22.6,21.33
				c-0.35-0.43-0.69-0.87-1.04-1.3c1.95,2.47,3.89,4.93,5.84,7.4c-0.32-0.44-0.63-0.89-0.95-1.33c1.8,2.56,3.59,5.13,5.39,7.69
				c-0.29-0.45-0.58-0.9-0.86-1.36c1.64,2.66,3.29,5.32,4.93,7.98c-0.26-0.46-0.52-0.92-0.78-1.37c1.48,2.76,2.97,5.52,4.45,8.28
				c-0.23-0.46-0.47-0.92-0.7-1.39c1.32,2.83,2.64,5.66,3.96,8.49c-0.21-0.47-0.41-0.93-0.62-1.4c1.15,2.9,2.31,5.8,3.46,8.69
				c-0.18-0.47-0.36-0.93-0.54-1.4c3.37,10.15,6.05,20.26,7.18,30.93c0.57,5.4,0.81,10.82,0.7,16.26
				c-0.11,5.56-0.56,11.09-1.35,16.59c-0.22,1.98,1.11,3.12,2.95,2.02c1.34-1.28,2.5-2.71,3.5-4.28c1.1-1.5,2-3.1,2.72-4.81
				c0.85-11.89,1.23-23.83-0.81-35.65c-0.58-3.35-1.13-6.71-1.9-10.03c-3.32-14.26-8.7-27.75-16-40.46
				c-10.21-17.77-24.78-32.76-41.52-44.47c-17.27-12.08-37.47-19.43-58.22-22.6c-21.25-3.24-43.13-0.73-63.48,5.9
				c-19.18,6.25-36.55,17.29-51.23,31c-22.79,21.29-37.48,50.75-41.91,81.49c-5.42,37.64,4.77,76.21,28.23,106.15
				c22.77,29.06,56.43,48.18,93.19,52.22c37.94,4.16,76.3-7.59,105.17-32.62c14.5-12.57,26.16-28,33.83-45.61
				c2.84-6.53,5.05-13.17,6.73-20.08c2.07-8.53,3.06-17.26,3.87-25.98c-0.09-0.84-0.53-1.38-1.34-1.62
				c-1.22-0.09-2.28,0.32-3.19,1.22c-1.7,1.2-3.3,2.52-4.8,3.97C417.88,379.59,417.28,380.56,417.14,381.77z"/>
			<path class="st2" d="M401.63,375.7c-0.14,2.82-0.28,5.65-0.42,8.47c-0.38,2.8-0.77,5.6-1.15,8.4c-1.07,6.7-2.88,13.24-5.24,19.59
				c-4.05,10.9-9.82,21.09-17.03,30.23c-14,17.77-33.41,31.91-54.71,39.63c-21.27,7.71-44.04,10-66.39,6.38
				c-11.88-1.93-23.48-5.5-34.35-10.7c-5.88-2.81-11.5-6.12-16.88-9.78c-5.88-4-11.11-8.48-16.48-13.17
				c0.43,0.38,0.87,0.77,1.3,1.15c-2.24-2.21-4.48-4.43-6.73-6.64c0.4,0.41,0.81,0.82,1.21,1.23c-2.1-2.34-4.2-4.68-6.3-7.02
				c0.37,0.43,0.74,0.86,1.12,1.29c-1.96-2.46-3.91-4.91-5.87-7.37c0.34,0.45,0.68,0.9,1.02,1.34c-1.8-2.56-3.61-5.13-5.41-7.69
				c0.31,0.46,0.61,0.93,0.92,1.39c-1.65-2.66-3.3-5.33-4.94-7.99c0.27,0.47,0.55,0.95,0.82,1.42c-1.49-2.75-2.97-5.51-4.46-8.26
				c0.24,0.48,0.48,0.97,0.73,1.45c-1.32-2.84-2.64-5.68-3.96-8.51c0.21,0.49,0.42,0.98,0.63,1.47c-1.15-2.91-2.3-5.82-3.45-8.74
				c0.18,0.49,0.36,0.99,0.54,1.48c-0.98-2.98-1.95-5.96-2.93-8.94c0.15,0.49,0.3,0.99,0.44,1.48c-0.8-3.04-1.59-6.08-2.39-9.11
				c0.12,0.49,0.24,0.99,0.35,1.48c-0.61-3.1-1.22-6.2-1.83-9.3c0.09,0.49,0.18,0.98,0.27,1.47c-0.43-3.13-0.85-6.27-1.28-9.4
				c0.06,0.48,0.12,0.97,0.18,1.45c-0.24-3.16-0.48-6.33-0.72-9.49c0.04,0.48,0.07,0.95,0.11,1.43c-0.25-5.48-0.15-10.95,0.29-16.42
				c0.44-5.58,1.24-11.11,2.4-16.59c2.26-10.64,5.91-20.97,10.82-30.66c9.5-18.74,23.67-34.98,40.8-47.12
				c17.01-12.06,36.86-19.99,57.51-22.89c10.6-1.49,21.37-1.65,32.01-0.54c5.46,0.57,10.86,1.47,16.21,2.72
				c5.22,1.22,10.34,2.77,15.36,4.65c-0.4-0.17-0.81-0.33-1.21-0.5c2.83,1.16,5.67,2.33,8.5,3.49c-0.4-0.19-0.79-0.37-1.19-0.56
				c2.74,1.32,5.47,2.64,8.21,3.97c-0.39-0.21-0.77-0.42-1.16-0.63c2.63,1.47,5.27,2.95,7.9,4.42c-0.38-0.23-0.75-0.46-1.13-0.69
				c2.53,1.62,5.06,3.24,7.59,4.86c-0.37-0.25-0.73-0.51-1.1-0.76c2.42,1.76,4.84,3.52,7.26,5.27c-0.36-0.27-0.71-0.55-1.07-0.82
				c2.31,1.89,4.62,3.78,6.92,5.67c-0.35-0.3-0.69-0.6-1.04-0.89c2.19,2.02,4.38,4.03,6.58,6.05c-0.33-0.32-0.67-0.64-1-0.96
				c2.07,2.14,4.14,4.27,6.22,6.41c-0.32-0.34-0.64-0.69-0.96-1.03c1.95,2.25,3.9,4.5,5.85,6.76c-0.3-0.37-0.61-0.73-0.91-1.1
				c1.82,2.36,3.64,4.72,5.46,7.09c-0.29-0.39-0.58-0.78-0.87-1.17c1.69,2.47,3.38,4.93,5.06,7.4c-0.27-0.41-0.54-0.83-0.82-1.24
				c1.55,2.57,3.1,5.13,4.65,7.7c-0.25-0.44-0.51-0.88-0.76-1.31c1.41,2.66,2.82,5.32,4.22,7.99c-0.23-0.46-0.47-0.92-0.7-1.39
				c1.26,2.75,2.52,5.51,3.78,8.26c-0.21-0.49-0.42-0.97-0.63-1.46c1.11,2.84,2.21,5.68,3.32,8.51c-0.19-0.51-0.37-1.02-0.56-1.53
				c0.95,2.92,1.89,5.84,2.84,8.75c-0.16-0.53-0.32-1.07-0.48-1.6c0.78,2.99,1.56,5.99,2.34,8.98c-0.13-0.56-0.27-1.11-0.4-1.67
				c0.61,3.06,1.22,6.13,1.83,9.19c-0.1-0.58-0.2-1.16-0.31-1.73c0.43,3.13,0.86,6.25,1.29,9.38c-0.07-0.6-0.14-1.2-0.21-1.8
				c0.25,3.19,0.49,6.37,0.74,9.56c-0.03-0.62-0.07-1.24-0.1-1.86c0.06,3.24,0.11,6.48,0.17,9.72c0.01-0.64,0.01-1.28,0.02-1.92
				c-0.14,3.29-0.28,6.58-0.42,9.87c0.05-0.66,0.09-1.31,0.14-1.97c-0.35,3.33-0.69,6.66-1.04,10c0.06,0.88,0.5,1.47,1.31,1.77
				c0.84,0.22,1.54-0.01,2.1-0.69c0.84-1.41,1.49-2.91,1.93-4.49c0.56-1.55,0.9-3.15,1.03-4.78c0.45-10.67,0.32-21.13-1.39-31.7
				c-1.63-10.1-4.35-20.15-8.3-29.59c-2.95-7.04-6.34-13.87-10.37-20.37c-3.8-6.14-8.11-11.77-12.71-17.31
				c-6.85-8.25-15.07-15.61-23.73-21.87c-15.28-11.04-32.88-18.82-51.35-22.61c-40.95-8.4-85.26,2.55-117.09,29.86
				c-15.14,12.99-27.62,28.75-36.14,46.85c-7.67,16.31-12.12,34.31-12.75,52.34c-0.44,12.55,0.63,25.11,3.5,37.35
				c4.67,19.98,13.96,38.83,26.91,54.75c13.71,16.86,31.34,30.18,51.27,38.81c16.94,7.34,35.03,10.99,53.46,11.17
				c30.33,0.3,60.53-9.96,84.58-28.39c14.37-11.01,26.57-24.89,35.47-40.67c5.19-9.21,9.24-19.05,11.93-29.27
				c2.83-10.74,3.96-21.8,4.88-32.83c0.3-0.92,0.1-1.68-0.62-2.28c-0.83-0.44-1.61-0.34-2.35,0.29c-1.39,1.39-2.61,2.92-3.65,4.59
				C403.35,372.18,402.39,373.89,401.63,375.7z"/>
			<path class="st2" d="M409.82,374.46c-0.15,5.73-0.73,11.42-1.74,17.07c0.1-0.53,0.21-1.06,0.31-1.59c-0.67,3.26-1.33,6.51-2,9.77
				c0.12-0.53,0.24-1.06,0.36-1.59c-1.46,5.21-2.96,10.33-4.94,15.37c-2.38,6.06-5.53,11.86-8.98,17.36
				c-5.45,8.7-11.99,16.6-19.45,23.66c-16.84,15.93-37.86,26.99-60.48,32.02c-22.36,4.97-46.09,4.03-67.93-2.98
				c-10.04-3.22-19.6-7.78-28.6-13.26c-5.52-3.36-10.71-7.31-15.63-11.5c-5.54-4.71-10.36-9.84-15.31-15.19
				c0.51,0.56,1.02,1.12,1.54,1.68c-2.11-2.58-4.22-5.15-6.33-7.73c0.47,0.59,0.95,1.19,1.42,1.78c-1.95-2.7-3.91-5.4-5.86-8.1
				c0.43,0.63,0.87,1.25,1.3,1.88c-1.79-2.82-3.58-5.63-5.37-8.45c0.39,0.66,0.78,1.31,1.17,1.97c-1.62-2.92-3.23-5.84-4.85-8.77
				c0.35,0.68,0.69,1.36,1.04,2.04c-1.44-3.02-2.88-6.04-4.32-9.06c0.3,0.7,0.6,1.4,0.9,2.11c-1.26-3.11-2.51-6.21-3.77-9.32
				c0.25,0.72,0.5,1.44,0.75,2.16c-1.07-3.18-2.14-6.37-3.2-9.55c0.2,0.73,0.4,1.47,0.61,2.2c-0.87-3.25-1.75-6.51-2.62-9.76
				c0.15,0.74,0.31,1.49,0.46,2.23c-1.4-5.87-2.45-11.8-3.14-17.79c-0.48-3.99-0.72-7.99-0.72-12c-0.16-8.24,0.43-16.38,1.77-24.51
				c2.84-17.14,9.13-33.57,18.51-48.21c8.41-13.13,19.19-24.5,31.52-34.01c6.15-4.75,12.85-8.76,19.73-12.35
				c9.36-4.88,19.25-8.06,29.4-10.79c-0.57,0.12-1.14,0.24-1.71,0.35c3.17-0.65,6.33-1.29,9.5-1.94c-0.57,0.09-1.14,0.17-1.7,0.26
				c3.21-0.46,6.42-0.92,9.63-1.38c-0.56,0.06-1.13,0.11-1.69,0.17c3.25-0.27,6.5-0.53,9.74-0.8c-0.56,0.03-1.12,0.05-1.68,0.08
				c3.28-0.07,6.56-0.14,9.83-0.22c-0.55,0-1.11,0-1.66-0.01c3.3,0.13,6.6,0.25,9.91,0.38c-0.55-0.03-1.09-0.06-1.64-0.09
				c3.32,0.33,6.64,0.66,9.96,0.98c-0.54-0.06-1.07-0.12-1.61-0.18c5.51,0.7,10.95,1.77,16.32,3.18c3.95,1,7.82,2.24,11.6,3.73
				c7.52,2.78,14.65,6.2,21.53,10.32c14.5,8.69,27.23,20.13,37.42,33.63c9.37,12.41,16.33,26.39,20.99,41.21
				c2.36,7.5,3.81,15.26,4.79,23.05c1.36,10.81,0.82,21.52-0.24,32.31c-0.24,2.46,1.63,3.08,3.27,1.46
				c1.25-1.88,2.32-3.87,3.18-5.96c0.98-2.04,1.75-4.16,2.32-6.35c0.27-5.67,0.2-11.34-0.21-17c-0.4-5.56-1.13-11.07-2.19-16.54
				c-2.08-10.76-5.43-21.26-9.95-31.24c-7.89-17.42-19.37-33.21-33.47-46.13c-12.34-11.31-26.86-20.69-42.48-26.82
				c-8.71-3.42-17.54-5.88-26.69-7.8c-11.79-2.47-24.26-2.9-36.24-2.05c-11.87,0.84-23.63,3.18-34.91,6.95
				c-19.45,6.51-37.43,17.3-52.34,31.38c-15.04,14.2-26.94,31.73-34.48,51c-8.44,21.56-11.28,44.93-8.52,67.89
				c2.67,22.18,10.55,43.47,23.11,61.98c11.12,16.4,25.74,30.41,42.58,40.84c16.63,10.31,35.42,17.1,54.79,19.82
				c16.64,2.33,33.46,1.57,49.88-1.83c25.81-5.35,50.11-18.65,68.86-37.1c13.21-12.99,23.84-28.69,30.73-45.9
				c6.47-16.17,8.79-33.27,10.63-50.49c-0.13-0.94-0.67-1.39-1.62-1.34c-1.52,0.45-2.74,1.36-3.66,2.72
				c-1.93,2.09-3.74,4.28-5.43,6.57C410.64,371.51,409.98,372.88,409.82,374.46z"/>
			<path class="st2" d="M416.77,386.84c-0.2,2.86-0.4,5.71-0.59,8.57c-0.42,4.19-1.12,8.34-2.08,12.43
				c-0.47,2.73-1.15,5.4-2.05,8.02c-1.06,3.92-2.42,7.74-4.09,11.46c0.18-0.4,0.35-0.81,0.53-1.21c-1.32,2.8-2.64,5.61-3.96,8.41
				c0.19-0.39,0.38-0.78,0.56-1.18c-3.23,5.76-6.55,11.32-10.55,16.6c-3.91,5.16-8.18,10.12-12.93,14.54
				c-8.54,7.96-17.98,14.77-28.31,20.2c-11.56,6.08-23.87,10.34-36.71,12.7c-11.86,2.18-23.86,2.61-35.87,1.61
				c-26.06-2.17-51.89-13.13-71.57-30.35c-18.15-15.88-31.92-36.12-39.41-59.08c-3.6-11.03-5.76-22.5-6.32-34.1
				c-0.63-13.27,0.63-27.05,4.21-39.88c6.64-23.78,19.63-45.18,37.91-61.81c18.05-16.42,40.57-27.7,64.6-32.08
				c13.09-2.39,26.9-2.87,40.1-1.07c5.42,0.74,10.79,1.76,16.1,3.08c8.45,2.1,16.28,5.45,24.23,8.93c-0.59-0.26-1.17-0.52-1.76-0.78
				c2.9,1.49,5.79,2.98,8.69,4.47c-0.56-0.3-1.13-0.6-1.69-0.9c2.78,1.66,5.57,3.32,8.35,4.98c-0.54-0.34-1.08-0.67-1.62-1.01
				c2.66,1.82,5.33,3.64,7.99,5.46c-0.51-0.37-1.02-0.74-1.53-1.11c2.54,1.97,5.07,3.95,7.61,5.92c-0.48-0.4-0.96-0.8-1.44-1.2
				c2.4,2.12,4.81,4.23,7.21,6.35c-0.45-0.43-0.9-0.85-1.35-1.28c2.27,2.25,4.53,4.5,6.8,6.75c-0.42-0.45-0.83-0.9-1.25-1.35
				c2.12,2.38,4.25,4.75,6.37,7.13c-0.38-0.47-0.77-0.94-1.15-1.42c1.98,2.49,3.95,4.99,5.93,7.48c-0.35-0.49-0.7-0.98-1.05-1.47
				c1.82,2.6,3.65,5.2,5.47,7.8c-0.31-0.5-0.63-1.01-0.94-1.51c1.66,2.7,3.33,5.4,4.99,8.1c-0.28-0.52-0.56-1.03-0.84-1.55
				c1.5,2.79,3,5.59,4.5,8.38c-0.25-0.52-0.49-1.05-0.74-1.57c1.33,2.88,2.67,5.75,4,8.63c-0.21-0.53-0.42-1.06-0.63-1.59
				c1.16,2.95,2.32,5.9,3.48,8.85c-0.18-0.53-0.35-1.07-0.53-1.6c0.99,3.02,1.97,6.04,2.96,9.05c-0.14-0.53-0.29-1.07-0.43-1.6
				c0.8,3.08,1.61,6.15,2.41,9.23c-0.11-0.53-0.22-1.07-0.34-1.6c0.62,3.13,1.24,6.25,1.86,9.38c-0.08-0.53-0.16-1.06-0.24-1.59
				c0.43,3.17,0.87,6.34,1.3,9.51c-0.05-0.52-0.1-1.05-0.15-1.57c0.24,3.2,0.48,6.41,0.73,9.61c-0.02-0.52-0.05-1.03-0.07-1.55
				c0.04,3.24,0.09,6.48,0.13,9.71c0-0.51,0.01-1.02,0.01-1.52c-0.15,3.25-0.3,6.5-0.45,9.75c0.03-0.5,0.06-0.99,0.09-1.49
				c-0.35,3.26-0.7,6.53-1.04,9.79c0.23,0.87,0.79,1.29,1.69,1.26c1.37-0.38,2.43-1.21,3.2-2.47c1.62-1.91,3.11-3.92,4.47-6.01
				c0.99-1.1,1.47-2.35,1.44-3.78c0.51-6.16,0.62-12.32,0.33-18.49c-0.28-6.06-0.96-12.08-2.05-18.04
				c-1.69-8.77-4.04-17.38-7.32-25.71c-7.49-19.04-19.31-36.39-34.28-50.34c-14.82-13.81-32.93-24.62-52.36-30.46
				c-8.46-2.54-17.07-4.43-25.86-5.39c-8.93-0.98-17.9-0.98-26.85-0.31c-26.95,2.02-53.46,12.91-74.6,29.64
				c-27.96,22.12-46.77,54.65-51.57,90.01c-4.8,35.36,4.38,71.67,25.57,100.41c21.42,29.05,53.85,48.88,89.58,54.21
				c37.42,5.58,76.15-4.45,105.91-27.92c15.39-12.14,28.19-27.67,36.75-45.33c2.69-5.54,5.04-11.35,6.87-17.22
				c3.39-10.88,4.82-22.21,6.39-33.46c0.02-0.87-0.39-1.45-1.22-1.71c-1.33-0.11-2.52,0.29-3.57,1.2c-1.98,1.21-3.86,2.55-5.66,4.03
				C417.87,384.56,417.1,385.55,416.77,386.84z"/>
			<path class="st2" d="M399.62,385.86c-0.02,5.73-0.55,11.42-1.61,17.05c0.08-0.52,0.15-1.03,0.23-1.55
				c-0.91,5.4-2.22,10.71-3.94,15.91c-1.67,5.01-3.69,9.88-6.08,14.59c-3.46,6.86-7.72,13.45-12.49,19.47
				c-11.07,13.97-25.32,25.44-41.18,33.54c-32.32,16.5-71.15,18.54-104.98,5.36c-33.28-12.96-59.95-39.97-73-73.18
				c-6.84-17.41-9.87-36.19-8.94-54.87c0.4-8.11,1.52-16.3,3.42-24.19c1.25-5.21,2.84-10.32,4.75-15.32
				c1.88-4.9,4.06-9.66,6.54-14.28c-0.15,0.27-0.31,0.55-0.46,0.82c1.45-2.52,2.89-5.03,4.34-7.55c-0.16,0.26-0.33,0.53-0.49,0.79
				c1.58-2.41,3.17-4.82,4.75-7.23c-0.17,0.25-0.35,0.51-0.52,0.76c1.72-2.3,3.43-4.6,5.15-6.9c-0.19,0.24-0.37,0.49-0.56,0.73
				c3.29-3.91,6.59-7.76,10.19-11.4c4.45-4.51,9.37-8.58,14.46-12.35c8.18-6.05,16.99-11.1,26.34-15.1
				c21.69-9.28,45.51-12.39,68.88-9.2c21.55,2.94,42.12,11.23,59.54,24.31c7.88,5.92,15,12.8,21.41,20.27
				c4,4.66,7.56,9.73,10.82,14.93c3.67,5.85,6.61,11.87,9.59,18.12c-0.28-0.59-0.56-1.18-0.84-1.77c1.19,2.93,2.39,5.87,3.58,8.8
				c-0.25-0.63-0.5-1.26-0.75-1.88c1.03,3.04,2.06,6.07,3.08,9.11c-0.21-0.67-0.43-1.33-0.64-2c0.85,3.13,1.7,6.26,2.56,9.39
				c-0.17-0.7-0.35-1.4-0.52-2.1c0.67,3.21,1.34,6.43,2,9.64c-0.13-0.73-0.26-1.47-0.39-2.2c0.47,3.29,0.95,6.58,1.42,9.88
				c-0.08-0.76-0.16-1.52-0.24-2.28c0.27,3.36,0.55,6.72,0.82,10.09c-0.03-0.79-0.06-1.57-0.08-2.36c0.06,3.42,0.13,6.85,0.19,10.27
				c0.03-0.81,0.06-1.61,0.09-2.42c-0.15,3.48-0.31,6.95-0.46,10.43c0.09-0.82,0.18-1.64,0.26-2.47c-0.38,3.53-0.77,7.06-1.15,10.59
				c-0.07,0.99,0.33,1.69,1.19,2.1c0.94,0.19,1.67-0.14,2.21-0.97c0.99-1.79,1.78-3.67,2.37-5.64c0.7-1.93,1.19-3.91,1.47-5.94
				c0.08-8.18-0.08-16.3-1.21-24.42c-1.07-7.71-2.82-15.39-5.2-22.8c-3.74-11.67-9.12-22.85-15.8-33.12
				c-15.67-24.07-38.89-43-65.82-53.06c-31.28-11.68-66.68-11.33-97.68,1.14c-24.45,9.84-45.94,26.97-60.91,48.67
				c-7.01,10.16-12.54,21.3-16.44,33c-5.79,17.37-7.86,35.97-6.45,54.22c2.83,36.9,20.97,72.12,49.41,95.79
				c23,19.14,52.66,30.49,82.65,30.85c18.14,0.22,35.92-2.96,52.8-9.63c19.4-7.67,36.59-20.31,50.41-35.84
				c12.63-14.2,22-31.24,27.33-49.47c3.66-12.51,5.4-25.58,6.38-38.55c-0.17-0.91-0.72-1.34-1.64-1.31
				c-1.44,0.4-2.59,1.26-3.44,2.56c-1.78,1.98-3.44,4.06-4.98,6.24C400.27,383.05,399.7,384.36,399.62,385.86z"/>
		</g>
	</g>
</g>
</svg>
