<svg xmlns="http://www.w3.org/2000/svg" viewBox="0 0 1001.79 1003.94"><defs><style>.cls-10,.cls-4,.cls-7,.cls-9{fill:none;stroke-linecap:round;stroke-linejoin:round}.cls-7{stroke:#fff}.cls-3{fill:#fff}.cls-4,.cls-9{stroke:#1b3c87}.cls-4{stroke-width:5.43px}.cls-6{fill:#ffc0c1}.cls-7,.cls-9{stroke-width:5.3px}.cls-8{fill:#46dbc9}.cls-10{stroke:#b6c6fc;stroke-width:3.95px}</style></defs><g id="Layer_2" data-name="Layer 2"><g id="vector"><path fill="#f0f0f0" d="M804.85 117.73c93.76 75 158.93 187.75 152.53 292.48-6.4 104.51-84.61 201-143.84 312.38s-99.93 238.06-177.92 270.53c-78.2 32.48-193.92-29.27-305.06-79.81-111.14-50.76-217.7-90.55-276.47-169.22-58.78-78.44-70.21-196-31.56-285.4s127.15-150.93 209.24-228C314.1 153.63 390 61.24 489.27 33.57s221.59 9.15 315.58 84.16z"/><path fill="none" stroke="#fff" stroke-dasharray="36" stroke-linecap="round" stroke-linejoin="round" stroke-width="6" d="M143.47 3C49.86 76.26 84.7 372.94 276.63 410.37 501.4 454.2 516.59 224.72 687 245.3c148.19 17.91 192.67 178.15 100.91 278.63"/><path d="M348.29 510.08c-11-4.21-65.92-48.52-70.2-55.51s-32.7-51.42-32.7-51.42l47.84-36.48s43.1 38.74 51.49 46.54 40.81 20.25 44.33 20.24-40.76 76.63-40.76 76.63z" class="cls-3"/><path d="M335.68 497.47c-6.56-3.78-59.38-47.7-64.59-52.9s-26-38.3-29.34-46.21" class="cls-4"/><path fill="#3b3744" d="M697 805.31c-11.26 5-213.17 51.31-248.2 51.73 8.07 45.18 38.05 133.57 40.15 142.54 17.93-4.35 236.32-86.5 244.41-91.89-6.71-12.93-32.65-76.1-36.36-102.38z"/><rect width="594.33" height="161.43" x="12.08" y="190.26" class="cls-6" rx="80.72" transform="rotate(-28.4 309.234 270.963)"/><path d="M283.29 315l-41.07-13.18 13.19-41.08M351.68 211.26l41.07 13.19-13.18 41.07M293.71 207.5l29.54 122.16" class="cls-7"/><path d="M257 211.84c-7.67-16.69-55.57.92-76 17.91 5.68 18.67 11.45 35.1 14.74 38.83 4.03.42 63.78-29.82 61.26-56.74z" class="cls-3"/><path d="M474.36 465.46c-28.52-23-67.81-38.4-79.17-43.09-8.26 3.57-18.88 22.43-28.24 43.83-16.74 31.43-22 69.63-22 69.63 25.92 16.11 79.69 26.4 89.17 26.4s40.24-96.77 40.24-96.77z" class="cls-8"/><path d="M527.07 441.32c100.28-24.05 146.11 263.17 167.89 363-21.33 15.88-210.54 63.52-248.2 51.68-69.42-182.82-93.51-373 80.31-414.68z" class="cls-8"/><path d="M519.07 431.32c100.28-24.05 146.11 263.17 167.89 363-21.33 15.88-210.54 63.52-248.2 51.68-69.42-182.82-93.51-373 80.31-414.68z" class="cls-9"/><path d="M581.06 620.66c-5.26 7.61-53.27 61.76-60.88 65.56s-37.8 3.31-43.61 0c-33.95-19.32-143.42-189.38-151.33-205.48s-19.31-38.92-29.56-47.41c-1.65-12.49 7.3-28.84-8.59-48.62 2.92-13.94-5.19-75.54 41-50.74 12.16 6.65 28.88 32.72 26.57 54.19s-5.1 45.86-.48 55.88 130.1 143.59 133.34 145.21c4-5.23 19.93-26.12 19.93-26.12z" class="cls-3"/><path d="M628.13 477.68c48.52 38.46-10.49 127.62-32.34 152.09-10 .44-96.86-50.7-101.31-71.68 12.59-18.79 79.58-123.28 133.65-80.41z" class="cls-8"/><path d="M360 534.7a151 151 0 01-22-10.87c-.59-2.39.32-7.74 3.25-17.8" class="cls-4"/><path d="M360.86 452.13c9.36-21.4 19.07-38.19 27.33-41.76 11.36 4.69 48.84 18.69 77.36 41.65" class="cls-9"/><path d="M426.42 523.12c-34.09-34.64-72.8-75.77-79.23-91.08-4.29-9-1.26-68.1 6.88-80.77M494.56 559.36c-5.24 5.52-9.89 12.64-14 17.89-1.18-1.36-7.93-8-17.84-17.82M522.36 666.35c-4.25 4.15-7.56 7.06-9.18 7.87-7.61 3.81-37.8 3.31-43.61 0-33.95-19.32-143.42-189.38-151.33-205.48s-19.31-38.92-29.56-47.41M571 612.57c-1.67 2.41-7.31 9.08-14.48 17.2M334.72 379.09c-1-17-11.08-53.17-18.71-61M317.49 379.09c-2.71-11.07-13.54-45.78-24.62-63M302.72 387.46c-.49-5.9-9.85-30.77-16.49-37.66M291.39 399.52c-1.23-6.15-8.86-22.64-14.76-28.3" class="cls-4"/><path d="M723.32 896.69c-5-10.83-31.59-79.64-36.36-102.38M586.26 945.27c-8-6.5-39.29-47-52.59-65.28M478.91 988.58c-4.64-10.21-36.05-117.39-40.15-142.54" class="cls-9"/><path d="M375.85 423.45c-8.18-3.62-24.82-11.9-30.61-13.08" class="cls-4"/><path d="M171.2 437.36l64.83 53.09-8.93-83.32" class="cls-6"/><path d="M244.5 198.1c-3.94-4.17-38.79-19.07-11.83 41M219.4 206.58c-4-4.17-38.79-19.07-11.84 41M190.1 220.58c-3.82-3.51-33.47-13-1.42 42" class="cls-4"/><path d="M916.67 660.88l76.4-31.07-218.6-77.17 72.45 220.2 32.71-75.71" class="cls-6"/><path d="M916.67 660.88l85.12 86.97-37.04 36.25-85.12-86.97" class="cls-6"/><path d="M530.09 588c-21.29-14.4-40.57-30.31-42.61-39.92M635.55 536.33c-9.82 34.59-34.31 69.5-46.76 83.44-4.07.18-20.75-8.12-39.45-19.44M513.17 512.48c27.51-34.1 70.79-74.28 108-44.8a49.93 49.93 0 014.24 3.75" class="cls-9"/><path d="M800.93 12.38l-95.79 96.35 229.04 53L800.93 12.38z" class="cls-10"/><path d="M148.01 764.95h151v171.64h-151z" class="cls-10" transform="rotate(-84.3 223.496 850.755)"/><circle cx="117.48" cy="918.95" r="83" class="cls-10"/><path d="M581.17 175.66c-4.32-15.62-22.58-18.94-31.79 14-4-11.54-12.35-27.94-21.06-27.94-5.44 0-13 5.62-18.83 15.86" class="cls-4"/><path d="M575.58 372.07c-4.23 14.17-18.18 61.11-18.61 93.67-6.76 4-52.23 5.71-64.49-3.38 3.38-14.38 9.09-55.19 7.61-69.36 6.35-1.26 75.49-20.93 75.49-20.93z" class="cls-3"/><path d="M493.43 416.91c1.47-12.84 2.35-25.28 1.66-31.91 6.35-1.26 75.49-20.93 75.49-20.93-4.23 14.17-18.18 61.11-18.61 93.67-4.14 2.46-22.8 4.05-39.46 2.83" class="cls-9"/><ellipse cx="531.52" cy="321.69" class="cls-3" rx="82.51" ry="64.55" transform="rotate(-77.87 531.48 321.693)"/><path d="M529 395.53a51.81 51.81 0 01-20.86-.17c-17.7-3.8-31.7-16.56-39.93-34M461.07 337.15a101.58 101.58 0 011.34-36C472 256.57 508 226.53 542.86 234s55.34 49.69 45.76 94.24a103.22 103.22 0 01-9.76 26.86" class="cls-4"/><path fill="#fb5d64" d="M596.18 342c1.28-4.31 14.28-28.88 13-68-.83-25.74-21.17-76.29-21.12-83 .17-21.31-22.18-31-32.71 6.63-4-11.54-12.35-27.94-21.06-27.94s-22.88 14.38-26.53 39.08c-1.21-7.9-8.3-17-12.35-17s-13.77.61-13.36 34.22c-3.24-4.05-10.33-6.48-14-6.48-7.52 0-18.07 36.11 11.9 59.45 1.68-3.18 6.39-9.9 6.67-9.9 5.51 1.49 58.79 14.78 91.13 19.23-.81 4.85-11.92 55.59.41 70.95A31 31 0 00596.18 342z"/><path d="M501.4 313.42c-1.37 5.5-9.7 14.6-13.92 16.24" class="cls-4"/><ellipse cx="536.7" cy="309.98" fill="#1b3c87" rx="6.93" ry="4.11" transform="rotate(-69.8 536.7 309.974)"/><path d="M524.81 355.12c-1.61 3.55-11.29 11.77-16.45 12.41M571.8 280.32a311.85 311.85 0 00-4.86 33.1M501.79 200.81c-1.21-7.9-8.3-17-12.35-17s-13.77.61-13.36 34.22c-3.24-4.05-10.33-6.48-14-6.48-7.52 0-18.07 36.11 11.9 59.45 1.68-3.18 6.39-9.9 6.67-9.9 4.53 1.23 41.4 10.44 72.34 16.15M594.52 322.78a152.45 152.45 0 008.69-56.78c-.47-14.38-7-36.51-12.71-54.4" class="cls-4"/><circle cx="581.76" cy="351.04" r="16.5" class="cls-3"/><path d="M573.86 330.5a16.5 16.5 0 11-1.2 30.86" class="cls-4"/></g></g></svg>